<svg width="40" height="40" viewBox="0 0 40 40" fill="none" xmlns="http://www.w3.org/2000/svg">
<path d="M13.8628 30.0001C13.8628 30.6631 13.603 31.299 13.1406 31.7678C12.6782 32.2366 12.0511 32.5 11.3971 32.5C10.7432 32.5 10.116 32.2366 9.65361 31.7678C9.1912 31.299 8.93142 30.6631 8.93142 30.0001M13.8628 30.0001C13.8628 29.3371 13.603 28.7012 13.1406 28.2324C12.6782 27.7635 12.0511 27.5002 11.3971 27.5002C10.7432 27.5002 10.116 27.7635 9.65361 28.2324C9.1912 28.7012 8.93142 29.3371 8.93142 30.0001M13.8628 30.0001H23.7256M8.93142 30.0001H5.8493C5.35884 30.0001 4.88848 29.8025 4.54167 29.4509C4.19486 29.0993 4.00003 28.6224 4.00003 28.1251V22.5003M23.7256 30.0001H27.4241M23.7256 30.0001V22.5003M4.00003 22.5003V9.77573C3.99742 9.31936 4.16188 8.87823 4.46159 8.53773C4.7613 8.19722 5.17494 7.98155 5.62246 7.93245C11.1013 7.35585 16.6243 7.35585 22.1032 7.93245C23.0319 8.02911 23.7256 8.82909 23.7256 9.77573V11.3723M4.00003 22.5003H23.7256M32.3555 30.0001C32.3555 30.6631 32.0957 31.299 31.6333 31.7678C31.1709 32.2366 30.5438 32.5 29.8898 32.5C29.2359 32.5 28.6087 32.2366 28.1463 31.7678C27.6839 31.299 27.4241 30.6631 27.4241 30.0001M32.3555 30.0001C32.3555 29.3371 32.0957 28.7012 31.6333 28.2324C31.1709 27.7635 30.5438 27.5002 29.8898 27.5002C29.2359 27.5002 28.6087 27.7635 28.1463 28.2324C27.6839 28.7012 27.4241 29.3371 27.4241 30.0001M32.3555 30.0001H34.2048C35.2256 30.0001 36.0606 29.1601 35.9965 28.1268C35.6662 22.6231 33.8381 17.3198 30.715 12.8056C30.4176 12.3828 30.0292 12.034 29.5792 11.7857C29.1293 11.5374 28.6296 11.3961 28.1178 11.3723H23.7256M23.7256 11.3723V22.5003" stroke="#E4D23A" stroke-width="1.5" stroke-linecap="round" stroke-linejoin="round"/>
</svg>
