<svg width="40" height="40" viewBox="0 0 40 40" fill="none" xmlns="http://www.w3.org/2000/svg">
<path d="M20.0082 3.75967L22.531 5.35356L22.8765 5.57179L23.2794 5.50282L26.2214 4.99944L27.9412 7.4402L28.1773 7.77544L28.5771 7.86569L31.4886 8.52315L32.1467 11.4344L32.237 11.8331L32.5705 12.0692L35.0071 13.7928L34.4962 16.7338L34.4258 17.138L34.6451 17.485L36.24 20.0088L34.6461 22.5315L34.4279 22.8771L34.4969 23.2799L35.0002 26.222L32.5595 27.9418L32.2243 28.1779L32.134 28.5777L31.4766 31.4892L28.5654 32.1473L28.1667 32.2376L27.9306 32.5711L26.207 35.0078L23.266 34.4968L22.8618 34.4265L22.5149 34.6458L19.9911 36.2407L17.4683 34.6468L17.1228 34.4285L16.72 34.4975L13.7779 35.0009L12.0581 32.5601L11.822 32.2249L11.4223 32.1347L8.51074 31.4772L7.8526 28.566L7.76235 28.1673L7.42882 27.9312L4.99221 26.2076L5.50314 23.2665L5.57348 22.8623L5.35422 22.5154L3.75931 19.9916L5.35319 17.4688L5.57142 17.1233L5.50245 16.7204L4.99907 13.7783L7.4398 12.0585L7.77505 11.8224L7.86529 11.4227L8.52275 8.51114L11.4339 7.85299L11.8326 7.76275L12.0687 7.42921L13.7923 4.99257L16.7333 5.50351L17.1375 5.57385L17.4845 5.35459L20.0082 3.75967ZM20 33.5089C21.8231 33.5089 23.5923 33.1517 25.2586 32.4469C26.8672 31.7665 28.3118 30.7926 29.5523 29.5522C30.7927 28.3117 31.7665 26.8674 32.447 25.2585C33.1518 23.5922 33.509 21.8229 33.509 19.9998C33.509 18.1767 33.1518 16.4075 32.447 14.7412C31.7665 13.1326 30.7927 11.6879 29.5523 10.4475C28.3118 9.20703 26.8676 8.23319 25.2586 7.55275C23.5923 6.84793 21.8231 6.49073 20 6.49073C18.1769 6.49073 16.4077 6.84793 14.7414 7.55275C13.1328 8.23319 11.6882 9.20703 10.4477 10.4475C9.2073 11.6879 8.23348 13.1322 7.55304 14.7412C6.84824 16.4075 6.49103 18.1767 6.49103 19.9998C6.49103 21.8229 6.84824 23.5922 7.55304 25.2585C8.23348 26.8671 9.2073 28.3117 10.4477 29.5522C11.6882 30.7923 13.1325 31.7665 14.7414 32.4469C16.4077 33.1517 18.1769 33.5089 20 33.5089ZM20.0082 2.5L16.9159 4.45453L13.3119 3.8283L11.1999 6.81431L7.63265 7.62069L6.8273 11.1883L3.83686 13.2955L4.45348 16.9002L2.5 19.9919L4.45451 23.0843L3.82828 26.6883L6.81427 28.8004L7.62064 32.3676L11.1882 33.173L13.2954 36.1631L16.9001 35.5465L19.9918 37.5L23.0841 35.5455L26.6881 36.1717L28.8001 33.1857L32.3674 32.3793L33.1727 28.8117L36.1631 26.7045L35.5465 23.0998L37.5 20.0081L35.5455 16.9157L36.1717 13.3117L33.1857 11.1996L32.3794 7.63235L28.8118 6.827L26.7046 3.83688L23.0999 4.4535L20.0082 2.5ZM20 32.4442C13.1273 32.4442 7.55613 26.8729 7.55613 20.0002C7.55613 13.1274 13.1273 7.55618 20 7.55618C26.8727 7.55618 32.4439 13.1274 32.4439 20.0002C32.4439 26.8729 26.8727 32.4442 20 32.4442Z" fill="#E4D23A"/>
<path d="M24.1755 14L18.6354 20.9982L16.2787 19.0214L14 21.6157L16.5643 23.7665L19.2268 26L27 16.0177L24.1755 14ZM18.7759 22.3448L19.3903 21.5686L24.3622 15.2883L25.6513 16.2094L19.0804 24.648L17.1858 23.0588L15.3457 21.5154L16.3814 20.3364L18.0139 21.7059L18.7759 22.3448Z" fill="#E4D23A"/>
</svg>
