<svg width="22" height="22" viewBox="0 0 22 22" fill="none" xmlns="http://www.w3.org/2000/svg">
<path fill-rule="evenodd" clip-rule="evenodd" d="M16.2618 13.1513C15.9913 13.0026 14.6597 12.2924 14.4101 12.1933C14.1604 12.0942 13.9773 12.0405 13.7859 12.3089C13.5945 12.5732 13.041 13.1719 12.8746 13.3495C12.7082 13.527 12.5459 13.5435 12.2754 13.3949C12.0049 13.2462 11.1269 12.9242 10.1116 11.9538C9.32098 11.1982 8.80083 10.2815 8.65103 10.0008C8.50123 9.71997 8.65103 9.57958 8.79251 9.44745C8.92151 9.3277 9.07963 9.13776 9.22527 8.98499C9.36675 8.83221 9.41668 8.71659 9.51655 8.53904C9.61642 8.36149 9.57481 8.20045 9.51239 8.06006C9.44997 7.91967 8.94647 6.55293 8.73842 5.99962C8.53036 5.44219 8.29733 5.52478 8.13505 5.52065C7.97276 5.51652 7.78967 5.48348 7.60658 5.47935C7.42349 5.4711 7.11973 5.5289 6.85758 5.79317C6.59542 6.05743 5.85474 6.69332 5.8048 8.03941C5.75487 9.38551 6.69113 10.7233 6.82429 10.9092C6.95328 11.0991 8.61774 14.0143 11.3766 15.2158C14.1396 16.4174 14.1521 16.0499 14.6597 16.0252C15.1674 16.0004 16.3159 15.4223 16.5697 14.7947C16.8235 14.1629 16.8443 13.6179 16.7778 13.5023C16.7112 13.3866 16.5322 13.3082 16.2618 13.1637V13.1513ZM11.1977 19.6381C9.37091 19.6381 7.67316 19.0931 6.25005 18.164L2.79629 19.2624L3.9198 15.9508C2.84207 14.4809 2.20957 12.6723 2.20957 10.7192C2.20957 5.7973 6.24173 1.79617 11.1977 1.79617C16.1536 1.79617 20.1899 5.7973 20.1899 10.7192C20.1899 15.6411 16.1577 19.6423 11.1977 19.6423V19.6381ZM11.1977 0C5.23473 0 0.39947 4.79805 0.39947 10.7151C0.39947 12.7384 0.965387 14.6336 1.95158 16.2481L0 22L5.97957 20.1006C7.52752 20.9512 9.30433 21.4343 11.1977 21.4343C17.1647 21.4343 22 16.6363 22 10.7151C22 4.79392 17.1647 0 11.1977 0Z" fill="white"/>
</svg>
