<svg width="40" height="40" viewBox="0 0 40 40" fill="none" xmlns="http://www.w3.org/2000/svg">
<path d="M35 12.5L31.25 10.3117M35 12.5V16.25M35 12.5L31.25 14.6883M5 12.5L8.75 10.3117M5 12.5L8.75 14.6883M5 12.5V16.25M20 21.25L23.75 19.0617M20 21.25L16.25 19.0617M20 21.25V25M20 36.25L23.75 34.0617M20 36.25V32.5M20 36.25L16.25 34.0617M16.25 5.93667L20 3.75L23.75 5.93833M35 23.75V27.5L31.25 29.6883M8.75 29.6883L5 27.5V23.75" stroke="white" stroke-opacity="0.7" stroke-width="1.5" stroke-linecap="round" stroke-linejoin="round"/>
</svg>
