<svg width="28" height="20" viewBox="0 0 28 20" fill="none" xmlns="http://www.w3.org/2000/svg">
<path d="M27.3 3.03572C26.95 1.78572 26.075 0.892857 24.85 0.535715C22.75 3.19311e-07 13.825 0 13.825 0C13.825 0 5.07501 3.19311e-07 2.80001 0.535715C1.57501 0.892857 0.699995 1.78572 0.349995 3.03572C-5.34579e-06 5.35714 0 10 0 10C0 10 5.31971e-06 14.6429 0.525005 16.9643C0.875005 18.2143 1.74999 19.1071 2.97499 19.4643C5.07499 20 14 20 14 20C14 20 22.75 20 25.025 19.4643C26.25 19.1071 27.125 18.2143 27.475 16.9643C28 14.6429 28 10 28 10C28 10 28 5.35714 27.3 3.03572ZM11.2 14.2857V5.71429L18.55 10L11.2 14.2857Z" fill="white"/>
</svg>
