<svg width="417" height="90" viewBox="0 0 417 90" fill="none" xmlns="http://www.w3.org/2000/svg">
<g clip-path="url(#clip0_4_314)">
<path d="M25.1104 0.211634C25.6553 0.207902 26.2002 0.204169 26.7616 0.200323C27.9051 0.194682 29.0486 0.192014 30.1922 0.192195C31.9381 0.18973 33.6833 0.169289 35.4292 0.148116C36.545 0.144827 37.6609 0.1426 38.7768 0.141545C39.2955 0.133487 39.8142 0.125429 40.3486 0.117126C43.5022 0.139396 45.314 0.531847 47.8111 2.64286C52.2569 7.19005 55.5131 12.9477 58.8844 18.3078C60.4884 20.8531 62.2277 23.2563 64.0706 25.6321C66.6093 22.2369 69.0316 18.7905 71.3485 15.2414C71.5868 14.8775 71.8251 14.5136 72.0707 14.1386C73.0552 12.634 74.0385 11.1287 75.0135 9.61784C75.7372 8.4983 76.4682 7.38386 77.2005 6.26998C77.4172 5.93006 77.634 5.59014 77.8573 5.23992C79.1932 3.22324 80.4051 2.0344 82.5729 0.960713C82.9429 0.775678 83.313 0.590642 83.6942 0.399999C85.289 0.351267 86.8698 0.335215 88.4644 0.345242C88.9357 0.346035 89.407 0.346829 89.8926 0.347646C91.4008 0.350789 92.9089 0.357828 94.4171 0.364954C95.4385 0.367766 96.4598 0.370324 97.4811 0.37262C99.9874 0.378809 102.494 0.388492 105 0.399999C104.661 2.13334 104.123 3.24788 103.066 4.65573C102.636 5.23679 102.636 5.23679 102.198 5.82959C101.885 6.24669 101.572 6.66379 101.25 7.09353C98.4755 10.8629 95.8063 14.6832 93.2257 18.5882C90.6797 22.4363 88.1208 26.2738 85.5164 30.0828C85.2185 30.519 84.9205 30.9552 84.6136 31.4047C83.2089 33.4521 81.789 35.4854 80.3302 37.4948C79.9386 38.0348 79.9386 38.0347 79.539 38.5857C79.0551 39.2492 78.568 39.9104 78.0771 40.5687C76.4396 42.714 76.4396 42.714 75.8448 45.2571C77.7581 49.7195 80.9304 53.7124 83.7753 57.6235C85.6028 60.1373 87.3819 62.6843 89.1608 65.2326C89.831 66.1919 90.5012 67.1513 91.1714 68.1106C91.5087 68.5936 91.846 69.0767 92.1936 69.5743C93.2321 71.0591 94.2732 72.542 95.3151 74.0244C105.561 88.608 105 88.4881 105 89.4336C105 89.4336 99.9017 89.4086 97.39 89.4336C96.954 89.4381 96.5179 89.4427 96.0686 89.4473C95.1492 89.4551 94.2299 89.4611 93.3105 89.4655C92.3736 89.472 91.4368 89.4835 90.5 89.5C89.1405 89.524 87.7816 89.533 86.4218 89.5387C86.0065 89.5486 85.5911 89.5584 85.1632 89.5685C82.2622 89.5564 81.4353 89.7086 79.2088 87.8714C78.2821 86.6142 77.4978 85.4285 76.7209 84.0866C76.2424 83.2927 75.7634 82.4991 75.2841 81.7058C75.0218 81.2664 74.7594 80.827 74.4891 80.3743C72.7412 77.469 70.9438 74.5942 69.1518 71.7159C68.7868 71.1237 68.4219 70.5315 68.0459 69.9215C67.7004 69.3651 67.3548 68.8087 66.9989 68.2355C66.691 67.7376 66.3832 67.2397 66.066 66.7268C65.2918 65.5894 64.5211 64.6864 63.51 63.7607C63.1963 64.2782 62.8826 64.7958 62.5595 65.329C59.7919 69.8496 56.9021 74.2694 53.8734 78.6196C53.5542 79.0813 53.235 79.543 52.9062 80.0187C46.7558 88.7791 46.6639 87.9111 42.9934 89.0146C39.8483 89.5199 36.6768 89.4923 33.5 89.4655C32.245 89.4566 21.0324 89.5577 19.7774 89.5685C12.5 89 13.3606 89.8367 6.5 83.5C1.94628 78.6175 -0.0280333 72.4141 0.00869864 65.8325C0.00673368 65.3905 0.00476873 64.9485 0.00274422 64.4932C-0.00215614 63.0443 0.00106658 61.5956 0.00486591 60.1467C0.00410919 59.1285 0.00301977 58.1103 0.00161494 57.0921C-3.43041e-05 54.9609 0.00235057 52.8296 0.00760358 50.6984C0.0139644 47.9876 0.0103287 45.277 0.00359761 42.5662C-0.000487925 40.463 0.000850968 38.3597 0.00374091 36.2565C0.00448115 35.2582 0.0035989 34.26 0.000960466 33.2618C-0.0204804 22.8636 -1.03529 14.2051 6.5 6.26998C11.7318 1.31137 18.0682 0.228689 25.1104 0.211634ZM19.7774 21.7071C17.4019 24.8627 17.8076 28.7259 17.769 32.5031C17.7563 33.2278 17.7436 33.9525 17.7305 34.6991C17.7043 36.2323 17.6837 37.7653 17.6673 39.2986C17.6463 41.2428 17.6126 43.1865 17.5748 45.1305C17.5397 47.0073 17.5146 48.8843 17.4887 50.7613C17.4759 51.4491 17.5019 54.2914 17.4887 55C17.5748 64.5 17.4887 62.9547 19.7774 68.2355C22.5 70.1388 26.1175 70.1064 28.6431 70.1388C29.2563 70.1598 29.8695 70.1808 30.5014 70.2024C34.0294 70.2884 34.0294 70.2884 37.1057 68.7743C37.4931 68.23 38.1009 67.5608 38.5 67C39.0155 66.3461 39.4833 65.653 40 65C40.6488 64.1802 40.9241 63.6932 41.4685 62.9547C41.7594 62.5633 42.0504 62.172 42.3501 61.7688C45.1553 57.9828 47.892 54.1493 50.6145 50.3036C50.8791 49.9806 51.1437 49.6576 51.4163 49.3248C52.7079 47.7012 53.4009 46.8234 53.4813 44.7074C52.6721 42.5122 51.5279 40.7992 50.1589 38.9141C49.8867 38.5296 49.6144 38.1451 49.3339 37.749C48.7549 36.9321 48.1735 36.1169 47.5899 35.3034C46.6838 34.0345 45.7915 32.7569 44.9026 31.4758C44.3187 30.6376 43.7347 29.7994 43.1505 28.9614C42.8821 28.5748 42.6138 28.1883 42.3373 27.79C39.4536 23.3222 39.4536 23.3222 35.4763 20.025C33.3653 19.8744 31.2493 19.8951 29.1336 19.8848C28.2539 19.8675 28.2539 19.8675 27.3563 19.8498C26.7886 19.8469 26.2209 19.844 25.636 19.841C25.1176 19.8358 24.5991 19.8305 24.065 19.8251C22.213 20.0745 21.245 20.5474 19.7774 21.7071Z" fill="#EBD344"/>
<path d="M271.66 16.6607C272.115 16.8855 272.57 17.1103 273.039 17.3419C276.67 19.4225 278.647 22.2877 280.07 26.1928C281.117 30.5963 281.363 34.8777 281.36 39.3893C281.362 40.0394 281.364 40.6894 281.367 41.3592C281.37 42.7242 281.37 44.0893 281.368 45.4544C281.366 47.5313 281.379 49.6077 281.394 51.6845C281.395 53.0181 281.395 54.3516 281.395 55.6851C281.4 56.2991 281.405 56.9131 281.41 57.5458C281.375 63.5046 280.128 68.7232 276.145 73.2928C271.383 77.6992 264.931 78.6723 258.637 78.4576C253.24 78.0471 249.372 76.2854 245.512 72.3598C240.238 65.6767 241.279 55.7066 241.279 47.7059C241.278 46.1755 241.268 44.6454 241.257 43.115C241.231 35.0364 241.433 27.3155 245.658 20.1652C252.667 13.5251 263.143 12.3483 271.66 16.6607ZM255.961 27.3143C253.327 30.8206 253.398 33.968 253.44 38.2504C253.439 38.9214 253.438 39.5923 253.437 40.2837C253.438 41.698 253.445 43.1123 253.456 44.5265C253.473 46.6886 253.468 48.85 253.461 51.0121C253.464 52.3887 253.469 53.7653 253.475 55.1419C253.473 55.7868 253.472 56.4317 253.47 57.0961C253.507 60.271 253.54 62.7335 255.4 65.4428C257.288 66.929 259.388 67.7131 261.8 67.6507C264.441 67.1559 266.419 66.3155 268.295 64.3214C268.901 62.5583 268.93 60.8913 268.938 59.0375C268.941 58.4293 268.945 57.8211 268.948 57.1944C268.949 56.5402 268.95 55.886 268.95 55.212C268.952 54.5373 268.954 53.8626 268.956 53.1675C268.959 51.7408 268.96 50.3141 268.96 48.8874C268.961 46.7044 268.971 44.5215 268.982 42.3386C268.984 40.9525 268.985 39.5664 268.985 38.1803C268.989 37.5272 268.993 36.8742 268.998 36.2013C268.996 35.5913 268.994 34.9814 268.992 34.3529C268.993 33.818 268.994 33.2832 268.995 32.7321C268.792 30.5526 268.297 28.9605 266.684 27.4545C263.602 25.6417 259.027 25.3549 255.961 27.3143Z" fill="#F7F6F3"/>
<path d="M333.894 16.1C361.889 16.1 361.889 16.1 366.551 20.5748C371.098 25.8107 371.632 31.5757 371.608 38.246C371.61 38.9122 371.611 39.5784 371.612 40.2648C371.612 41.6687 371.61 43.0726 371.606 44.4764C371.6 46.6149 371.606 48.7532 371.613 50.8917C371.612 52.2602 371.611 53.6288 371.608 54.9974C371.611 55.6318 371.613 56.2663 371.615 56.92C371.579 63.0802 370.827 68.6399 366.413 73.2929C360.73 77.9308 353.657 78.0326 346.671 77.9363C345.375 77.9186 344.079 77.9133 342.782 77.91C341.951 77.9049 341.12 77.899 340.29 77.8925C339.905 77.8901 339.521 77.8877 339.125 77.8853C337.249 77.8572 335.733 77.6776 333.894 77.2179C333.894 57.049 333.894 36.8801 333.894 16.1ZM345.669 27.3143C345.669 40.0818 345.669 52.8492 345.669 66.0036C351.34 67.0208 351.34 67.0208 356.847 65.7583C359.36 63.6556 360.035 61.1336 360.401 57.9103C360.466 56.4649 360.479 55.0293 360.469 53.5824C360.471 53.0553 360.473 52.5281 360.474 51.985C360.475 50.8772 360.472 49.7693 360.465 48.6615C360.456 46.9807 360.465 45.3007 360.476 43.6199C360.475 42.5368 360.473 41.4537 360.469 40.3706C360.473 39.8757 360.476 39.3808 360.48 38.871C360.442 35.5087 360.171 32.0088 358.564 28.9964C354.863 26.4488 354.863 26.4488 345.669 27.3143Z" fill="#FAF9F4"/>
<path d="M319.597 17.7121C323.87 21.3444 326.088 25.6554 326.606 31.2393C326.685 33.4276 326.684 35.614 326.68 37.8036C326.681 38.4319 326.681 39.0602 326.682 39.7076C326.682 41.0333 326.681 42.359 326.679 43.6847C326.676 45.7001 326.679 47.7154 326.682 49.7308C326.682 51.0234 326.681 52.3161 326.68 53.6087C326.681 54.2052 326.682 54.8018 326.683 55.4164C326.662 62.3266 326.443 67.9903 321.599 73.3739C316.345 78.2296 310.448 78.6731 303.578 78.4132C298.674 78.0779 294.925 75.9117 291.563 72.4189C287.662 67.5763 287.667 61.236 287.696 55.3128C287.694 54.5756 287.692 53.8385 287.691 53.079C287.688 51.529 287.692 49.9793 287.7 48.4294C287.709 46.4582 287.704 44.4873 287.694 42.5162C287.686 40.6138 287.692 38.7116 287.696 36.8092C287.692 36.1093 287.689 35.4095 287.685 34.6884C287.729 29.2605 288.331 24.3653 291.844 20.025C299.535 12.7605 310.656 12.9217 319.597 17.7121ZM301.375 27.3143C299.111 30.521 299.45 33.995 299.47 37.7576C299.468 38.4418 299.467 39.126 299.465 39.831C299.464 41.275 299.467 42.7191 299.474 44.1631C299.483 46.3707 299.474 48.5778 299.463 50.7854C299.464 52.1901 299.467 53.5949 299.47 54.9996C299.466 55.6585 299.463 56.3174 299.46 56.9963C299.491 61.4537 299.491 61.4537 301.375 65.4429C303.117 67.0201 304.974 67.707 307.321 67.6507C309.498 67.2906 311.073 66.8499 312.869 65.548C314.833 62.6841 314.979 60.1105 314.91 56.7124C314.905 56.246 314.9 55.7796 314.895 55.2991C314.884 54.3153 314.87 53.3316 314.854 52.3479C314.832 50.9131 314.82 49.4786 314.811 48.0437C314.794 45.7325 314.76 43.4221 314.715 41.1112C314.699 40.1698 314.687 39.2283 314.679 38.2868C314.668 36.8966 314.641 35.5073 314.612 34.1173C314.612 33.6992 314.611 33.281 314.61 32.8501C314.533 30.1162 314.012 28.6497 312.028 26.7536C310.326 26.1863 309.114 26.0999 307.332 26.0877C306.808 26.0798 306.283 26.0718 305.742 26.0636C303.996 26.208 302.893 26.4282 301.375 27.3143Z" fill="#F8F7F2"/>
<path d="M150.799 18.2027C154.517 21.287 155.978 24.8366 156.721 29.5571C156.883 32.0146 156.892 34.4653 156.89 36.9275C156.892 37.6262 156.895 38.325 156.897 39.0449C156.901 40.8923 156.9 42.7397 156.896 44.5871C156.897 46.4492 156.912 48.3112 156.924 50.1732C156.925 51.6104 156.926 53.0476 156.925 54.4848C156.93 55.1456 156.935 55.8064 156.941 56.4873C156.902 63.5021 155.807 69.0149 150.867 74.1295C146.506 78.1465 140.69 78.5135 135.035 78.4619C130.745 78.1793 127.241 76.6836 123.642 74.4143L123 73.5L122.5 73C122.5 73 120.66 71.0712 119.892 69.4379C119.659 68.9537 119.425 68.4694 119.185 67.9704C118.177 65.5656 117.959 63.5319 117.936 60.922C117.928 60.2348 117.921 59.5476 117.914 58.8397C117.909 58.0904 117.905 57.3411 117.901 56.5919C117.899 56.2119 117.897 55.8319 117.894 55.4405C117.883 53.4265 117.875 51.4126 117.869 49.3986C117.863 47.3336 117.844 45.269 117.822 43.2042C117.807 41.6037 117.802 40.0032 117.8 38.4026C117.796 37.2762 117.781 36.1499 117.766 35.0235C117.78 29.0799 118.759 23.7847 122.969 19.346C130.918 12.8791 142.334 12.4216 150.799 18.2027ZM130.871 28.6022C129.11 31.3548 129.501 34.6058 129.531 37.7576C129.53 38.4418 129.529 39.126 129.528 39.831C129.529 41.275 129.536 42.7191 129.547 44.1631C129.564 46.3708 129.559 48.5777 129.552 50.7854C129.555 52.1901 129.56 53.5948 129.566 54.9995C129.564 55.6585 129.563 56.3174 129.561 56.9963C129.604 60.7656 129.727 63.6783 132.529 66.481C134.842 67.7176 137.356 67.3906 139.901 67.125C142.025 66.4422 142.912 65.951 144.179 64.1285C145.3 61.1374 145.198 58.3118 145.19 55.1419C145.193 54.4715 145.196 53.801 145.199 53.1103C145.203 51.695 145.202 50.2797 145.197 48.8644C145.193 46.7034 145.209 44.5433 145.226 42.3824C145.227 41.0051 145.227 39.6277 145.225 38.2504C145.232 37.6066 145.238 36.9629 145.244 36.2996C145.213 32.6267 144.932 30.2849 142.705 27.3143C139.202 25.0124 133.662 25.5576 130.871 28.6022Z" fill="#F9F8F3"/>
<path d="M408.832 18.2947C411.997 20.9292 414.693 23.8097 415.753 27.875C415.753 29.7254 415.753 31.5757 415.753 33.4822C411.867 33.4822 407.982 33.4822 403.979 33.4822C403.139 31.8942 402.3 30.3062 401.46 28.7183C400.751 27.2574 400.751 27.2574 399.493 26.7536C398.478 26.6996 397.461 26.6808 396.445 26.6835C395.902 26.682 395.359 26.6806 394.8 26.6791C393.264 26.6907 393.264 26.6907 391.644 27.3143C391.133 30.2759 390.79 32.396 392.204 35.1643C394.922 37.7697 397.958 39.2621 401.315 40.9116C407.613 44.1155 413.838 47.8219 416.167 54.9317C417.454 60.1077 417.146 65.4001 414.45 70.1016C411.557 74.1182 408.174 76.8682 403.271 78.0962C397.115 79.071 390.183 78.9212 384.907 75.3123C380.972 72.1363 378.408 68.8249 377.627 63.7607C377.518 62.0492 377.544 60.4321 377.627 58.7143C387.898 58.4325 387.898 58.4324 390.452 60.817C391.083 62.0786 391.083 62.0786 391.609 63.8308C392.033 65.4694 392.033 65.4694 393.188 66.0912C395.433 66.9347 397.696 66.8938 400.054 66.5643C401.498 65.5073 402.07 64.7737 402.857 63.2C402.989 62.0558 402.989 62.0558 402.997 60.7819C403.019 60.1433 403.019 60.1433 403.041 59.4918C402.802 57.7484 402.191 56.7856 401.175 55.35C399.901 54.4425 399.901 54.4425 398.407 53.762C397.862 53.4904 397.316 53.2188 396.754 52.9389C396.178 52.659 395.602 52.3792 395.008 52.0909C381.172 45.1123 381.172 45.1123 377.942 37.0917C376.496 32.4237 377.181 27.6094 379.099 23.144C381.663 18.7408 385.765 16.4222 390.522 14.9786C396.641 13.3827 403.739 14.6242 408.832 18.2947Z" fill="#F9F8F3"/>
<path d="M238.019 16.1C238.019 19.8007 238.019 23.5014 238.019 27.3143C231.358 27.3143 224.697 27.3143 217.835 27.3143C218.02 31.9402 218.205 36.5661 218.396 41.3321C224.131 41.3321 229.867 41.3321 235.776 41.3321C235.776 45.0329 235.776 48.7336 235.776 52.5464C230.041 52.5464 224.305 52.5464 218.396 52.5464C218.21 60.688 218.101 69.1117 217.91 77.5C214.025 77.5 210.139 77.5 206.136 77.5C206.136 57.3311 206.061 36.8801 206.061 16.1C216.967 15.7695 227.227 15.4891 238.019 16.1Z" fill="#FAFAF5"/>
<path d="M201.49 16.5729C200.195 20.6861 198.615 24.6599 196.96 28.6393C196.516 29.7096 196.076 30.7814 195.636 31.8535C194.362 34.9359 193.069 37.9512 191.463 40.8785C189.826 44.1367 189.655 46.6227 190.784 50.0961C191.487 51.8797 192.253 53.6216 193.045 55.3673C193.609 56.6557 194.173 57.9443 194.736 59.2332C195.021 59.8784 195.306 60.5236 195.6 61.1883C196.889 64.1268 198.127 67.0852 199.352 70.051C199.569 70.5636 199.785 71.0762 200.008 71.6044C200.204 72.0791 200.401 72.5538 200.603 73.043C200.775 73.4552 200.947 73.8675 201.125 74.2922C201.49 75.4479 202 76 202 77.6908C197.93 77.6908 193.349 77.6908 189.155 77.6908C187.252 74.0467 185.666 70.3997 184.218 66.5531C183.616 64.9708 182.99 63.4065 182.322 61.8506C182.152 61.4545 181.675 60.4081 181.5 60C181.516 60.0375 181.5 59.5 180.5 59C180 59.5 180.044 60.0064 179.971 60.4284C179.637 61.9301 179.18 63.1634 178.544 64.56C178.328 65.0367 178.112 65.5133 177.89 66.0045C177.664 66.4956 177.438 66.9867 177.206 67.4928C176.986 67.9774 176.767 68.462 176.541 68.9614C175.2 71.9087 173.785 74.7902 172.335 77.6908C168.264 77.6908 164.194 77.6908 160 77.6908C160.628 73.2938 160.628 73.2938 161.752 70.9972C163.139 68.0845 164.438 65.1457 165.711 62.1824C166.602 60.1298 167.533 58.11 168.537 56.1098C168.744 55.6929 168.95 55.2759 169.163 54.8463C169.56 54.0504 169.964 53.2585 170.379 52.4715C172.06 49.0779 172.477 46.1685 171.269 42.5247C170.564 40.8096 169.799 39.1359 169.006 37.4595C168.441 36.223 167.877 34.9862 167.313 33.7492C167.028 33.1306 166.742 32.5121 166.449 31.8748C165.164 29.06 163.946 26.2179 162.733 23.3716C162.522 22.8788 162.31 22.386 162.092 21.8783C161.338 20.1183 160.606 18.3903 160 16.5729C164.626 16.5729 169.251 16.5729 174.017 16.5729C174.699 18.2035 175.381 19.8342 176.084 21.5142C177.76 25.5063 179.482 29.4676 181.306 33.3943C181.427 33.1039 181.548 32.8135 181.673 32.5142C183.908 27.1655 186.152 21.8307 188.594 16.5729C190.533 16.4628 192.472 16.3595 194.411 16.2575C194.964 16.2261 195.516 16.1946 196.085 16.1622C196.876 16.1216 196.876 16.1216 197.683 16.0801C198.415 16.0404 198.415 16.0404 199.16 16C200.369 16.0122 200.369 16.0122 201.49 16.5729Z" fill="#F8F7F4"/>
</g>
<defs>
<clipPath id="clip0_4_314">
<rect width="417" height="90" fill="white"/>
</clipPath>
</defs>
</svg>
