<svg width="56" height="57" viewBox="0 0 56 57" fill="none" xmlns="http://www.w3.org/2000/svg">
<mask id="path-1-inside-1_17_1485" fill="white">
<path d="M28.0103 8.11213L31.1773 10.1131L31.6111 10.387L32.1169 10.3005L35.8103 9.66852L37.9693 12.7326L38.2657 13.1535L38.7675 13.2668L42.4226 14.0921L43.2488 17.7468L43.3621 18.2474L43.7808 18.5437L46.8397 20.7075L46.1983 24.3997L46.11 24.9071L46.3852 25.3426L48.3874 28.511L46.3865 31.678L46.1125 32.1118L46.1991 32.6175L46.8311 36.311L43.767 38.47L43.3461 38.7664L43.2329 39.2682L42.4075 42.9234L38.7529 43.7496L38.2523 43.8629L37.9559 44.2816L35.7922 47.3405L32.1001 46.6991L31.5926 46.6108L31.1571 46.8861L27.9888 48.8883L24.8218 46.8873L24.388 46.6134L23.8823 46.7L20.1889 47.3319L18.0298 44.2678L17.7335 43.8469L17.2316 43.7337L13.5765 42.9083L12.7503 39.2536L12.637 38.753L12.2183 38.4567L9.15944 36.2929L9.80085 32.6007L9.88916 32.0933L9.6139 31.6578L7.61168 28.4894L9.61261 25.3224L9.88658 24.8886L9.79999 24.3829L9.16805 20.6894L12.2321 18.5304L12.653 18.234L12.7663 17.7322L13.5916 14.0771L17.2463 13.2508L17.7468 13.1375L18.0432 12.7188L20.2069 9.6599L23.8991 10.3013L24.4065 10.3896L24.842 10.1144L28.0103 8.11213ZM28 45.4589C30.2887 45.4589 32.5097 45.0105 34.6015 44.1257C36.621 43.2714 38.4345 42.0489 39.9917 40.4916C41.549 38.9344 42.7715 37.1213 43.6257 35.1014C44.5105 33.0095 44.9589 30.7885 44.9589 28.4998C44.9589 26.2111 44.5105 23.99 43.6257 21.8982C42.7715 19.8787 41.549 18.0652 39.9917 16.5079C38.4345 14.9507 36.6214 13.7281 34.6015 12.8739C32.5097 11.9891 30.2887 11.5407 28 11.5407C25.7113 11.5407 23.4903 11.9891 21.3985 12.8739C19.379 13.7281 17.5655 14.9507 16.0082 16.5079C14.451 18.0652 13.2285 19.8783 12.3743 21.8982C11.4895 23.99 11.041 26.2111 11.041 28.4998C11.041 30.7885 11.4895 33.0095 12.3743 35.1014C13.2285 37.1208 14.451 38.9344 16.0082 40.4916C17.5655 42.0485 19.3786 43.2714 21.3985 44.1257C23.4903 45.0105 25.7113 45.4589 28 45.4589ZM28.0103 6.53076L24.1282 8.98445L19.6039 8.19829L16.9525 11.9469L12.4742 12.9592L11.4632 17.4379L7.70904 20.0833L8.48313 24.6086L6.03076 28.4899L8.48442 32.372L7.69827 36.8964L11.4468 39.5478L12.4591 44.0261L16.9378 45.0372L19.5832 48.7909L24.1084 48.0168L27.9897 50.4692L31.8717 48.0155L36.3961 48.8017L39.0475 45.0531L43.5258 44.0408L44.5368 39.562L48.2909 36.9167L47.5169 32.3914L49.9692 28.5101L47.5156 24.628L48.3017 20.1036L44.5532 17.4522L43.5409 12.9738L39.0621 11.9628L36.4168 8.20906L31.8916 8.98316L28.0103 6.53076ZM28 44.1222C19.3721 44.1222 12.3781 37.1282 12.3781 28.5002C12.3781 19.8722 19.3721 12.8782 28 12.8782C36.6279 12.8782 43.6218 19.8722 43.6218 28.5002C43.6218 37.1282 36.6279 44.1222 28 44.1222Z"/>
</mask>
<path d="M28.0103 8.11213L31.1773 10.1131L31.6111 10.387L32.1169 10.3005L35.8103 9.66852L37.9693 12.7326L38.2657 13.1535L38.7675 13.2668L42.4226 14.0921L43.2488 17.7468L43.3621 18.2474L43.7808 18.5437L46.8397 20.7075L46.1983 24.3997L46.11 24.9071L46.3852 25.3426L48.3874 28.511L46.3865 31.678L46.1125 32.1118L46.1991 32.6175L46.8311 36.311L43.767 38.47L43.3461 38.7664L43.2329 39.2682L42.4075 42.9234L38.7529 43.7496L38.2523 43.8629L37.9559 44.2816L35.7922 47.3405L32.1001 46.6991L31.5926 46.6108L31.1571 46.8861L27.9888 48.8883L24.8218 46.8873L24.388 46.6134L23.8823 46.7L20.1889 47.3319L18.0298 44.2678L17.7335 43.8469L17.2316 43.7337L13.5765 42.9083L12.7503 39.2536L12.637 38.753L12.2183 38.4567L9.15944 36.2929L9.80085 32.6007L9.88916 32.0933L9.6139 31.6578L7.61168 28.4894L9.61261 25.3224L9.88658 24.8886L9.79999 24.3829L9.16805 20.6894L12.2321 18.5304L12.653 18.234L12.7663 17.7322L13.5916 14.0771L17.2463 13.2508L17.7468 13.1375L18.0432 12.7188L20.2069 9.6599L23.8991 10.3013L24.4065 10.3896L24.842 10.1144L28.0103 8.11213ZM28 45.4589C30.2887 45.4589 32.5097 45.0105 34.6015 44.1257C36.621 43.2714 38.4345 42.0489 39.9917 40.4916C41.549 38.9344 42.7715 37.1213 43.6257 35.1014C44.5105 33.0095 44.9589 30.7885 44.9589 28.4998C44.9589 26.2111 44.5105 23.99 43.6257 21.8982C42.7715 19.8787 41.549 18.0652 39.9917 16.5079C38.4345 14.9507 36.6214 13.7281 34.6015 12.8739C32.5097 11.9891 30.2887 11.5407 28 11.5407C25.7113 11.5407 23.4903 11.9891 21.3985 12.8739C19.379 13.7281 17.5655 14.9507 16.0082 16.5079C14.451 18.0652 13.2285 19.8783 12.3743 21.8982C11.4895 23.99 11.041 26.2111 11.041 28.4998C11.041 30.7885 11.4895 33.0095 12.3743 35.1014C13.2285 37.1208 14.451 38.9344 16.0082 40.4916C17.5655 42.0485 19.3786 43.2714 21.3985 44.1257C23.4903 45.0105 25.7113 45.4589 28 45.4589ZM28.0103 6.53076L24.1282 8.98445L19.6039 8.19829L16.9525 11.9469L12.4742 12.9592L11.4632 17.4379L7.70904 20.0833L8.48313 24.6086L6.03076 28.4899L8.48442 32.372L7.69827 36.8964L11.4468 39.5478L12.4591 44.0261L16.9378 45.0372L19.5832 48.7909L24.1084 48.0168L27.9897 50.4692L31.8717 48.0155L36.3961 48.8017L39.0475 45.0531L43.5258 44.0408L44.5368 39.562L48.2909 36.9167L47.5169 32.3914L49.9692 28.5101L47.5156 24.628L48.3017 20.1036L44.5532 17.4522L43.5409 12.9738L39.0621 11.9628L36.4168 8.20906L31.8916 8.98316L28.0103 6.53076ZM28 44.1222C19.3721 44.1222 12.3781 37.1282 12.3781 28.5002C12.3781 19.8722 19.3721 12.8782 28 12.8782C36.6279 12.8782 43.6218 19.8722 43.6218 28.5002C43.6218 37.1282 36.6279 44.1222 28 44.1222Z" stroke="#E4D23A" stroke-width="3.44615" stroke-linejoin="round" mask="url(#path-1-inside-1_17_1485)"/>
<path d="M32.8716 21.1777L25.5285 30.2215L22.4047 27.6669L19.3845 31.0196L22.7834 33.7991L26.3123 36.6854L36.6153 23.7852L32.8716 21.1777ZM25.7148 31.9618L26.5291 30.9586L33.119 22.8426L34.8276 24.033L26.1183 34.9382L23.6071 32.8845L21.1681 30.8899L22.5409 29.3664L24.7048 31.1361L25.7148 31.9618Z" fill="#E4D23A"/>
</svg>
