<svg width="56" height="57" viewBox="0 0 56 57" fill="none" xmlns="http://www.w3.org/2000/svg">
<mask id="path-1-inside-1_17_1453" fill="white">
<path d="M28.1448 8.91956C26.7438 8.91956 25.5496 9.79794 25.0999 11.0216L7.84393 13.1287C6.36543 13.3115 5.30568 14.6417 5.49178 16.0938C5.66237 17.4393 6.83069 18.4243 8.17478 18.4243C8.28334 18.4243 8.39707 18.4193 8.5108 18.404L9.21386 18.3177L4.0443 33.3466C4.03396 33.3822 4.02363 33.4228 4.01329 33.4583H0.430786L0.50316 34.423C0.746129 37.5659 3.44981 40.0284 6.65493 40.0284H16.0118C19.2169 40.0284 21.9206 37.5659 22.1636 34.423L22.236 33.4583H18.8913C18.8809 33.4228 18.8758 33.3822 18.8602 33.3466L13.5149 17.7897L24.8983 16.3985V42.3691H18.9636C17.175 42.3691 15.7172 43.7958 15.7172 45.5577C15.7172 47.3195 17.1698 48.7462 18.9636 48.7462H37.3259C39.1146 48.7462 40.5724 47.3144 40.5724 45.5577C40.5724 43.8009 39.1146 42.3691 37.3259 42.3691H31.3912V15.6064L42.4282 14.2558L37.3828 28.9344C37.3672 28.9751 37.3621 29.0106 37.3517 29.0461H33.7641L33.8364 30.0108C34.0794 33.1537 36.7831 35.6162 39.9882 35.6162H49.3451C52.5502 35.6162 55.2539 33.1537 55.4917 30.0108L55.5692 29.0461H52.2245C52.2194 29.0106 52.209 28.97 52.1935 28.9344L46.9568 13.7024L48.1509 13.5552C49.6346 13.3724 50.6892 12.0421 50.5031 10.5849C50.317 9.13281 48.9626 8.09195 47.4841 8.27474L30.8278 10.3107C30.2436 9.46791 29.2562 8.9094 28.1448 8.9094V8.91956ZM20.1475 35.2608C19.5788 37.0074 17.8935 38.2412 16.0118 38.2412H6.65493C4.77321 38.2412 3.08794 37.0074 2.51929 35.2608H20.1475ZM17.2008 33.4634H5.7089L10.9922 18.1045L11.8865 17.9928L17.2008 33.4634ZM37.3259 43.9634C38.2202 43.9634 38.9491 44.6793 38.9491 45.5577C38.9491 46.436 38.2202 47.1519 37.3259 47.1519H18.9636C18.0693 47.1519 17.3404 46.436 17.3404 45.5577C17.3404 44.6793 18.0693 43.9634 18.9636 43.9634H37.3259ZM53.4808 30.8435C52.9121 32.5901 51.2268 33.8239 49.3451 33.8239H39.9882C38.1065 33.8239 36.4212 32.5901 35.8526 30.8435H53.4808ZM50.5341 29.0461H39.0422L44.2014 14.0375L45.3284 13.9004L50.5341 29.0461ZM47.6908 9.85887C47.7374 9.85887 47.7787 9.84871 47.8253 9.84871C48.3629 9.84871 48.8333 10.2447 48.9005 10.7829C48.9367 11.0622 48.854 11.3414 48.6782 11.5699C48.4973 11.7933 48.244 11.9406 47.9597 11.971L31.3964 13.9969L30.5848 14.0984L29.7732 14.2V42.3691H26.5267V14.596L25.7151 14.6976L24.9035 14.7991L8.31436 16.8301C8.03003 16.8656 7.7457 16.7894 7.51307 16.6117C7.28561 16.434 7.1357 16.1852 7.09951 15.906C7.06332 15.6267 7.14087 15.3475 7.3218 15.1241C7.50274 14.8956 7.75604 14.7534 8.04037 14.7179L24.8983 12.6565L25.7099 12.5549L26.5215 12.4534V12.1081C26.5215 11.9457 26.5525 11.7883 26.5991 11.641C26.718 11.2653 26.9661 10.9505 27.3021 10.7525C27.5503 10.6052 27.8346 10.5138 28.1448 10.5138C28.3102 10.5138 28.4653 10.5443 28.6152 10.59C28.9977 10.7068 29.3183 10.9505 29.525 11.2805C29.6646 11.509 29.7525 11.773 29.7628 12.0523L30.5641 11.9558L31.3757 11.8543L47.6857 9.85887H47.6908Z"/>
</mask>
<path d="M28.1448 8.91956V10.9196H30.1448V8.91956H28.1448ZM25.0999 11.0216L25.3423 13.0068L26.5555 12.8587L26.9771 11.7116L25.0999 11.0216ZM7.84393 13.1287L7.60151 11.1434L7.59854 11.1438L7.84393 13.1287ZM5.49178 16.0938L7.4759 15.8423L7.47555 15.8396L5.49178 16.0938ZM8.5108 18.404L8.26709 16.4189L8.25619 16.4203L8.24531 16.4217L8.5108 18.404ZM9.21386 18.3177L11.1051 18.9683L12.1458 15.9427L8.97015 16.3326L9.21386 18.3177ZM4.0443 33.3466L2.15306 32.6961L2.13738 32.7417L2.12391 32.788L4.0443 33.3466ZM4.01329 33.4583V35.4583H5.51439L5.93368 34.017L4.01329 33.4583ZM0.430786 33.4583V31.4583H-1.72488L-1.56361 33.608L0.430786 33.4583ZM0.50316 34.423L-1.49124 34.5727L-1.49089 34.5772L0.50316 34.423ZM22.1636 34.423L24.1576 34.5772L24.158 34.5727L22.1636 34.423ZM22.236 33.4583L24.2304 33.608L24.3916 31.4583H22.236V33.4583ZM18.8913 33.4583L16.9709 34.017L17.3902 35.4583H18.8913V33.4583ZM18.8602 33.3466L16.9688 33.9965L16.995 34.0727L17.0272 34.1465L18.8602 33.3466ZM13.5149 17.7897L13.2723 15.8044L10.821 16.104L11.6235 18.4396L13.5149 17.7897ZM24.8983 16.3985H26.8983V14.1392L24.6557 14.4133L24.8983 16.3985ZM24.8983 42.3691V44.3691H26.8983V42.3691H24.8983ZM31.3912 42.3691H29.3912V44.3691H31.3912V42.3691ZM31.3912 15.6064L31.1483 13.6212L29.3912 13.8362V15.6064H31.3912ZM42.4282 14.2558L44.3196 14.906L45.359 11.8823L42.1853 12.2707L42.4282 14.2558ZM37.3828 28.9344L39.2512 29.6478L39.2632 29.6164L39.2741 29.5846L37.3828 28.9344ZM37.3517 29.0461V31.0461H38.8528L39.2721 29.6048L37.3517 29.0461ZM33.7641 29.0461V27.0461H31.6084L31.7697 29.1958L33.7641 29.0461ZM33.8364 30.0108L31.842 30.1605L31.8424 30.165L33.8364 30.0108ZM55.4917 30.0108L53.4981 29.8506L53.4974 29.8599L55.4917 30.0108ZM55.5692 29.0461L57.5628 29.2064L57.7365 27.0461H55.5692V29.0461ZM52.2245 29.0461L50.2454 29.334L50.4944 31.0461H52.2245V29.0461ZM52.1935 28.9344L50.3022 29.5847L50.3283 29.6607L50.3604 29.7343L52.1935 28.9344ZM46.9568 13.7024L46.712 11.7174L44.2632 12.0194L45.0654 14.3527L46.9568 13.7024ZM48.1509 13.5552L47.9064 11.5702L47.9062 11.5702L48.1509 13.5552ZM50.5031 10.5849L52.487 10.3316L52.4869 10.3307L50.5031 10.5849ZM47.4841 8.27474L47.7267 10.26L47.7295 10.2596L47.4841 8.27474ZM30.8278 10.3107L29.184 11.45L29.8718 12.4425L31.0704 12.296L30.8278 10.3107ZM28.1448 8.9094V6.9094H26.1448V8.9094H28.1448ZM20.1475 35.2608L22.0492 35.88L22.9019 33.2608H20.1475V35.2608ZM2.51929 35.2608V33.2608H-0.235194L0.617539 35.88L2.51929 35.2608ZM17.2008 33.4634V35.4634H20.0025L19.0923 32.8137L17.2008 33.4634ZM5.7089 33.4634L3.81767 32.8129L2.90591 35.4634H5.7089V33.4634ZM10.9922 18.1045L10.7443 16.1199L9.50666 16.2745L9.10095 17.4539L10.9922 18.1045ZM11.8865 17.9928L13.778 17.343L13.2504 15.8069L11.6386 16.0082L11.8865 17.9928ZM53.4808 30.8435L55.3825 31.4627L56.2352 28.8435H53.4808V30.8435ZM35.8526 30.8435V28.8435H33.0981L33.9508 31.4627L35.8526 30.8435ZM50.5341 29.0461V31.0461H53.3364L52.4255 28.396L50.5341 29.0461ZM39.0422 29.0461L37.1508 28.396L36.2398 31.0461H39.0422V29.0461ZM44.2014 14.0375L43.9599 12.0522L42.717 12.2033L42.31 13.3874L44.2014 14.0375ZM45.3284 13.9004L47.2198 13.2503L46.6936 11.7196L45.0868 11.9151L45.3284 13.9004ZM48.9005 10.7829L46.9159 11.0308L46.9171 11.04L48.9005 10.7829ZM48.6782 11.5699L50.2324 12.8287L50.2482 12.8092L50.2634 12.7894L48.6782 11.5699ZM47.9597 11.971L47.7466 9.98242L47.7317 9.98402L47.7169 9.98583L47.9597 11.971ZM31.3964 13.9969L31.1536 12.0117L31.1481 12.0124L31.3964 13.9969ZM30.5848 14.0984L30.3365 12.1139L30.5848 14.0984ZM29.7732 14.2L29.5249 12.2155L27.7732 12.4346V14.2H29.7732ZM29.7732 42.3691V44.3691H31.7732V42.3691H29.7732ZM26.5267 42.3691H24.5267V44.3691H26.5267V42.3691ZM26.5267 14.596H28.5267V12.3302L26.2784 12.6115L26.5267 14.596ZM25.7151 14.6976L25.9634 16.6821H25.9634L25.7151 14.6976ZM24.9035 14.7991L25.1465 16.7843L25.1517 16.7836L24.9035 14.7991ZM8.31436 16.8301L8.07132 14.8449L8.06628 14.8455L8.31436 16.8301ZM7.51307 16.6117L6.28177 18.1878L6.29034 18.1945L6.29898 18.2011L7.51307 16.6117ZM7.3218 15.1241L8.876 16.3828L8.88291 16.3743L8.88971 16.3657L7.3218 15.1241ZM8.04037 14.7179L7.79762 12.7327L7.79229 12.7333L8.04037 14.7179ZM24.8983 12.6565L25.141 14.6417L25.1466 14.641L24.8983 12.6565ZM25.7099 12.5549L25.9582 14.5395H25.9582L25.7099 12.5549ZM26.5215 12.4534L26.7698 14.4379L28.5215 14.2187V12.4534H26.5215ZM26.5991 11.641L24.6923 11.0376L24.692 11.0384L26.5991 11.641ZM27.3021 10.7525L28.3175 12.4756L28.3227 12.4725L27.3021 10.7525ZM28.6152 10.59L29.1991 8.67715L29.1983 8.6769L28.6152 10.59ZM29.525 11.2805L31.2318 10.2379L31.2259 10.2282L31.2198 10.2186L29.525 11.2805ZM29.7628 12.0523L27.7642 12.1263L27.8446 14.2977L30.0019 14.0379L29.7628 12.0523ZM30.5641 11.9558L30.8032 13.9415L30.8124 13.9403L30.5641 11.9558ZM31.3757 11.8543L31.1329 9.86906L31.1274 9.86973L31.3757 11.8543ZM47.6857 9.85887V7.85887H47.5638L47.4428 7.87367L47.6857 9.85887ZM28.1448 6.91956C25.894 6.91956 23.9578 8.33169 23.2227 10.3316L26.9771 11.7116C27.1415 11.2642 27.5937 10.9196 28.1448 10.9196V6.91956ZM24.8575 9.03632L7.60151 11.1434L8.08634 15.1139L25.3423 13.0068L24.8575 9.03632ZM7.59854 11.1438C5.06222 11.4573 3.17574 13.7555 3.508 16.3481L7.47555 15.8396C7.43561 15.5279 7.66864 15.1656 8.08932 15.1136L7.59854 11.1438ZM3.50766 16.3454C3.8101 18.7307 5.86477 20.4243 8.17478 20.4243V16.4243C7.79662 16.4243 7.51465 16.148 7.47589 15.8423L3.50766 16.3454ZM8.17478 20.4243C8.34282 20.4243 8.54963 20.4167 8.77629 20.3863L8.24531 16.4217C8.24602 16.4216 8.24067 16.4224 8.22815 16.4231C8.21565 16.4238 8.19823 16.4243 8.17478 16.4243V20.4243ZM8.75451 20.3891L9.45757 20.3028L8.97015 16.3326L8.26709 16.4189L8.75451 20.3891ZM7.32261 17.6672L2.15306 32.6961L5.93555 33.9972L11.1051 18.9683L7.32261 17.6672ZM2.12391 32.788C2.1128 32.8262 2.10283 32.8631 2.09867 32.8785C2.09249 32.9012 2.09213 32.9023 2.09289 32.8997L5.93368 34.017C5.94479 33.9788 5.95476 33.9419 5.95892 33.9265C5.9651 33.9038 5.96546 33.9027 5.9647 33.9053L2.12391 32.788ZM4.01329 31.4583H0.430786V35.4583H4.01329V31.4583ZM-1.56361 33.608L-1.49124 34.5727L2.49756 34.2734L2.42518 33.3087L-1.56361 33.608ZM-1.49089 34.5772C-1.16518 38.7903 2.43395 42.0284 6.65493 42.0284V38.0284C4.46566 38.0284 2.65744 36.3415 2.49721 34.2689L-1.49089 34.5772ZM6.65493 42.0284H16.0118V38.0284H6.65493V42.0284ZM16.0118 42.0284C20.2328 42.0284 23.8319 38.7903 24.1576 34.5772L20.1695 34.2689C20.0093 36.3415 18.2011 38.0284 16.0118 38.0284V42.0284ZM24.158 34.5727L24.2304 33.608L20.2416 33.3087L20.1692 34.2734L24.158 34.5727ZM22.236 31.4583H18.8913V35.4583H22.236V31.4583ZM20.8117 32.8997C20.8241 32.9426 20.8314 32.9744 20.8321 32.9772C20.8324 32.9785 20.8328 32.9803 20.831 32.9724C20.8298 32.967 20.827 32.9546 20.8236 32.9403C20.8125 32.8936 20.7747 32.7332 20.6933 32.5468L17.0272 34.1465C16.992 34.066 16.9694 33.9979 16.9556 33.9522C16.942 33.9074 16.934 33.8737 16.9318 33.8647C16.9307 33.8599 16.93 33.857 16.931 33.8611C16.9313 33.8627 16.9339 33.8739 16.9364 33.8846C16.9414 33.9061 16.9532 33.9563 16.9709 34.017L20.8117 32.8997ZM20.7517 32.6967L15.4064 17.1398L11.6235 18.4396L16.9688 33.9965L20.7517 32.6967ZM13.7575 19.7749L25.1409 18.3837L24.6557 14.4133L13.2723 15.8044L13.7575 19.7749ZM22.8983 16.3985V42.3691H26.8983V16.3985H22.8983ZM24.8983 40.3691H18.9636V44.3691H24.8983V40.3691ZM18.9636 40.3691C16.1066 40.3691 13.7172 42.6554 13.7172 45.5577H17.7172C17.7172 44.9362 18.2434 44.3691 18.9636 44.3691V40.3691ZM13.7172 45.5577C13.7172 48.4578 16.0993 50.7462 18.9636 50.7462V46.7462C18.2403 46.7462 17.7172 46.1811 17.7172 45.5577H13.7172ZM18.9636 50.7462H37.3259V46.7462H18.9636V50.7462ZM37.3259 50.7462C40.185 50.7462 42.5724 48.4528 42.5724 45.5577H38.5724C38.5724 46.1761 38.0441 46.7462 37.3259 46.7462V50.7462ZM42.5724 45.5577C42.5724 42.6625 40.185 40.3691 37.3259 40.3691V44.3691C38.0441 44.3691 38.5724 44.9392 38.5724 45.5577H42.5724ZM37.3259 40.3691H31.3912V44.3691H37.3259V40.3691ZM33.3912 42.3691V15.6064H29.3912V42.3691H33.3912ZM31.6342 17.5916L42.6712 16.241L42.1853 12.2707L31.1483 13.6212L31.6342 17.5916ZM40.5369 13.6057L35.4914 28.2843L39.2741 29.5846L44.3196 14.906L40.5369 13.6057ZM35.5143 28.221C35.4636 28.3539 35.4355 28.4645 35.4231 28.5147C35.4202 28.5267 35.4177 28.5373 35.4166 28.5419C35.415 28.5485 35.4152 28.5476 35.4155 28.5465C35.4162 28.5436 35.4219 28.5199 35.4313 28.4875L39.2721 29.6048C39.2867 29.5546 39.297 29.5131 39.302 29.4923C39.3045 29.4823 39.3069 29.4723 39.3074 29.4698C39.3085 29.4654 39.3082 29.4669 39.3075 29.4697C39.3042 29.4831 39.2864 29.5555 39.2512 29.6478L35.5143 28.221ZM37.3517 27.0461H33.7641V31.0461H37.3517V27.0461ZM31.7697 29.1958L31.8421 30.1605L35.8308 29.8612L35.7585 28.8965L31.7697 29.1958ZM31.8424 30.165C32.1681 34.3781 35.7672 37.6162 39.9882 37.6162V33.6162C37.7989 33.6162 35.9907 31.9293 35.8305 29.8567L31.8424 30.165ZM39.9882 37.6162H49.3451V33.6162H39.9882V37.6162ZM49.3451 37.6162C53.5654 37.6162 57.167 34.3782 57.486 30.1617L53.4974 29.8599C53.3408 31.9292 51.5351 33.6162 49.3451 33.6162V37.6162ZM57.4853 30.1711L57.5628 29.2064L53.5757 28.8859L53.4981 29.8506L57.4853 30.1711ZM55.5692 27.0461H52.2245V31.0461H55.5692V27.0461ZM54.2037 28.7583C54.1781 28.582 54.1265 28.3636 54.0266 28.1346L50.3604 29.7343C50.3231 29.6487 50.2989 29.5735 50.2828 29.5144C50.2665 29.4542 50.2542 29.3944 50.2454 29.334L54.2037 28.7583ZM54.0849 28.2842L48.8481 13.0522L45.0654 14.3527L50.3022 29.5847L54.0849 28.2842ZM47.2015 15.6874L48.3957 15.5401L47.9062 11.5702L46.712 11.7174L47.2015 15.6874ZM48.3955 15.5402C50.9436 15.2262 52.8179 12.9228 52.487 10.3316L48.5192 10.8383C48.5605 11.1615 48.3256 11.5185 47.9064 11.5702L48.3955 15.5402ZM52.4869 10.3307C52.1578 7.76275 49.7861 5.97491 47.2387 6.28985L47.7295 10.2596C48.139 10.209 48.4762 10.5029 48.5193 10.8392L52.4869 10.3307ZM47.2414 6.28951L30.5851 8.32553L31.0704 12.296L47.7267 10.26L47.2414 6.28951ZM32.4715 9.17146C31.5277 7.80969 29.9363 6.9094 28.1448 6.9094V10.9094C28.5761 10.9094 28.9595 11.1261 29.184 11.45L32.4715 9.17146ZM26.1448 8.9094V8.91956H30.1448V8.9094H26.1448ZM18.2457 34.6416C17.9466 35.5604 17.0321 36.2412 16.0118 36.2412V40.2412C18.755 40.2412 21.211 38.4544 22.0492 35.88L18.2457 34.6416ZM16.0118 36.2412H6.65493V40.2412H16.0118V36.2412ZM6.65493 36.2412C5.63465 36.2412 4.72017 35.5604 4.42103 34.6416L0.617539 35.88C1.45571 38.4544 3.91177 40.2412 6.65493 40.2412V36.2412ZM2.51929 37.2608H20.1475V33.2608H2.51929V37.2608ZM17.2008 31.4634H5.7089V35.4634H17.2008V31.4634ZM7.60014 34.114L12.8834 18.755L9.10095 17.4539L3.81767 32.8129L7.60014 34.114ZM11.2401 20.089L12.1344 19.9773L11.6386 16.0082L10.7443 16.1199L11.2401 20.089ZM9.995 18.6425L15.3093 34.1132L19.0923 32.8137L13.778 17.343L9.995 18.6425ZM37.3259 45.9634C37.1497 45.9634 36.9491 45.8176 36.9491 45.5577H40.9491C40.9491 43.5409 39.2907 41.9634 37.3259 41.9634V45.9634ZM36.9491 45.5577C36.9491 45.2977 37.1497 45.1519 37.3259 45.1519V49.1519C39.2907 49.1519 40.9491 47.5744 40.9491 45.5577H36.9491ZM37.3259 45.1519H18.9636V49.1519H37.3259V45.1519ZM18.9636 45.1519C19.1398 45.1519 19.3404 45.2977 19.3404 45.5577H15.3404C15.3404 47.5744 16.9988 49.1519 18.9636 49.1519V45.1519ZM19.3404 45.5577C19.3404 45.8176 19.1398 45.9634 18.9636 45.9634V41.9634C16.9988 41.9634 15.3404 43.5409 15.3404 45.5577H19.3404ZM18.9636 45.9634H37.3259V41.9634H18.9636V45.9634ZM51.579 30.2244C51.2799 31.1431 50.3654 31.8239 49.3451 31.8239V35.8239C52.0883 35.8239 54.5443 34.0371 55.3825 31.4627L51.579 30.2244ZM49.3451 31.8239H39.9882V35.8239H49.3451V31.8239ZM39.9882 31.8239C38.9679 31.8239 38.0535 31.1431 37.7543 30.2244L33.9508 31.4627C34.789 34.0371 37.245 35.8239 39.9882 35.8239V31.8239ZM35.8526 32.8435H53.4808V28.8435H35.8526V32.8435ZM50.5341 27.0461H39.0422V31.0461H50.5341V27.0461ZM40.9336 29.6963L46.0928 14.6877L42.31 13.3874L37.1508 28.396L40.9336 29.6963ZM44.4429 16.0229L45.5699 15.8858L45.0868 11.9151L43.9599 12.0522L44.4429 16.0229ZM43.437 14.5505L48.6427 29.6962L52.4255 28.396L47.2198 13.2503L43.437 14.5505ZM47.6908 11.8589C47.7748 11.8589 47.8454 11.8543 47.8951 11.85C47.9409 11.8461 47.9813 11.8413 47.9876 11.8406C48.0033 11.8388 47.9848 11.841 47.9614 11.843C47.9339 11.8454 47.886 11.8487 47.8253 11.8487V7.84871C47.7413 7.84871 47.6708 7.8533 47.621 7.85755C47.5752 7.86146 47.5348 7.86628 47.5285 7.86701C47.5128 7.86882 47.5313 7.86654 47.5547 7.86453C47.5822 7.86219 47.6301 7.85887 47.6908 7.85887V11.8589ZM47.8253 11.8487C47.3995 11.8487 46.9793 11.5379 46.9159 11.0308L50.8851 10.5351C50.6874 8.95162 49.3263 7.84871 47.8253 7.84871V11.8487ZM46.9171 11.04C46.8797 10.7511 46.9729 10.5066 47.093 10.3505L50.2634 12.7894C50.7351 12.1763 50.9937 11.3733 50.8839 10.5259L46.9171 11.04ZM47.124 10.3112C47.2477 10.1585 47.4619 10.0129 47.7466 9.98242L48.1727 13.9597C49.0261 13.8682 49.7469 13.4282 50.2324 12.8287L47.124 10.3112ZM47.7169 9.98583L31.1536 12.0117L31.6392 15.9821L48.2025 13.9562L47.7169 9.98583ZM31.1481 12.0124L30.3365 12.1139L30.8331 16.083L31.6447 15.9814L31.1481 12.0124ZM30.3365 12.1139L29.5249 12.2155L30.0215 16.1845L30.8331 16.083L30.3365 12.1139ZM27.7732 14.2V42.3691H31.7732V14.2H27.7732ZM29.7732 40.3691H26.5267V44.3691H29.7732V40.3691ZM28.5267 42.3691V14.596H24.5267V42.3691H28.5267ZM26.2784 12.6115L25.4668 12.713L25.9634 16.6821L26.775 16.5806L26.2784 12.6115ZM25.4668 12.713L24.6552 12.8146L25.1517 16.7836L25.9634 16.6821L25.4668 12.713ZM24.6604 12.8139L8.07132 14.8449L8.55739 18.8152L25.1465 16.7843L24.6604 12.8139ZM8.06628 14.8455C8.30487 14.8157 8.54513 14.8833 8.72717 15.0224L6.29898 18.2011C6.94628 18.6955 7.75519 18.9155 8.56243 18.8146L8.06628 14.8455ZM8.74438 15.0357C8.89646 15.1545 9.04607 15.3646 9.08293 15.649L5.11609 16.163C5.22532 17.0059 5.67476 17.7135 6.28177 18.1878L8.74438 15.0357ZM9.08293 15.649C9.11685 15.9108 9.04052 16.1797 8.876 16.3828L5.7676 13.8653C5.24121 14.5153 5.00979 15.3427 5.11609 16.163L9.08293 15.649ZM8.88971 16.3657C8.74692 16.546 8.52733 16.6726 8.28844 16.7024L7.79229 12.7333C6.98476 12.8343 6.25856 13.2452 5.75389 13.8824L8.88971 16.3657ZM8.28312 16.7031L25.141 14.6417L24.6555 10.6713L7.79762 12.7327L8.28312 16.7031ZM25.1466 14.641L25.9582 14.5395L25.4616 10.5704L24.65 10.672L25.1466 14.641ZM25.9582 14.5395L26.7698 14.4379L26.2732 10.4689L25.4616 10.5704L25.9582 14.5395ZM28.5215 12.4534V12.1081H24.5215V12.4534H28.5215ZM28.5215 12.1081C28.5215 12.1984 28.5047 12.248 28.5061 12.2436L24.692 11.0384C24.6004 11.3285 24.5215 11.6929 24.5215 12.1081H28.5215ZM28.5059 12.2444C28.4789 12.3296 28.4151 12.4181 28.3175 12.4755L26.2867 9.02941C25.5171 9.48294 24.957 10.201 24.6923 11.0376L28.5059 12.2444ZM28.3227 12.4725C28.3148 12.4772 28.2947 12.4878 28.2623 12.4973C28.2287 12.5072 28.1882 12.5138 28.1448 12.5138V8.51384C27.4296 8.51384 26.7966 8.72686 26.2815 9.0325L28.3227 12.4725ZM28.1448 12.5138C28.0602 12.5138 28.0135 12.4974 28.0321 12.5031L29.1983 8.6769C28.9171 8.59117 28.5602 8.51384 28.1448 8.51384V12.5138ZM28.0313 12.5029C27.9647 12.4826 27.8856 12.4307 27.8302 12.3424L31.2198 10.2186C30.7509 9.47027 30.0308 8.93101 29.1991 8.67715L28.0313 12.5029ZM27.8183 12.3232C27.7967 12.2879 27.7677 12.2217 27.7642 12.1263L31.7615 11.9783C31.7373 11.3243 31.5325 10.7302 31.2318 10.2379L27.8183 12.3232ZM30.0019 14.0379L30.8032 13.9415L30.3251 9.97015L29.5238 10.0666L30.0019 14.0379ZM30.8124 13.9403L31.624 13.8388L31.1274 9.86973L30.3158 9.97128L30.8124 13.9403ZM31.6186 13.8395L47.9286 11.8441L47.4428 7.87367L31.1329 9.86906L31.6186 13.8395ZM47.6857 11.8589H47.6908V7.85887H47.6857V11.8589Z" fill="#E4D23A" mask="url(#path-1-inside-1_17_1453)"/>
</svg>
