<svg width="56" height="57" viewBox="0 0 56 57" fill="none" xmlns="http://www.w3.org/2000/svg">
<path d="M7.323 16.4375L28.0704 29.3606L48.6768 16.5133" stroke="#E4D23A" stroke-width="2" stroke-linecap="round" stroke-linejoin="round"/>
<path d="M27.1383 50.8987L27.5691 29.791" stroke="#E4D23A" stroke-width="2" stroke-linecap="square" stroke-linejoin="round"/>
<path d="M23.1699 6.28602L10.71 13.2161C7.88662 14.7794 5.57666 18.6994 5.57666 21.9194V35.1028C5.57666 38.3228 7.88662 42.2427 10.71 43.8061L23.1699 50.7361C25.8299 52.2061 30.1933 52.2061 32.8533 50.7361L45.3133 43.8061C48.1367 42.2427 50.4466 38.3228 50.4466 35.1028V21.9194C50.4466 18.6994 48.1367 14.7794 45.3133 13.2161L32.8533 6.28602C30.1699 4.79268 25.8299 4.79268 23.1699 6.28602Z" stroke="#E4D23A" stroke-width="2" stroke-linecap="round" stroke-linejoin="round"/>
<path d="M39.6667 31.3931V22.8532L17.5234 10.0664" stroke="#E4D23A" stroke-width="2" stroke-linecap="square" stroke-linejoin="round"/>
</svg>
