<svg width="56" height="57" viewBox="0 0 56 57" fill="none" xmlns="http://www.w3.org/2000/svg">
<path d="M24.2186 40.9061C24.2186 41.7287 23.8912 42.5175 23.3083 43.0992C22.7254 43.6808 21.9349 44.0076 21.1106 44.0076C20.2863 44.0076 19.4957 43.6808 18.9128 43.0992C18.33 42.5175 18.0025 41.7287 18.0025 40.9061M24.2186 40.9061C24.2186 40.0836 23.8912 39.2947 23.3083 38.7131C22.7254 38.1315 21.9349 37.8047 21.1106 37.8047C20.2863 37.8047 19.4957 38.1315 18.9128 38.7131C18.33 39.2947 18.0025 40.0836 18.0025 40.9061M24.2186 40.9061H36.6509M18.0025 40.9061H14.1174C13.4992 40.9061 12.9063 40.6611 12.4691 40.2248C12.032 39.7886 11.7864 39.197 11.7864 38.5801V31.6018M36.6509 40.9061H41.313M36.6509 40.9061V31.6018M11.7864 31.6018V15.8155C11.7831 15.2493 11.9904 14.702 12.3682 14.2796C12.746 13.8572 13.2674 13.5896 13.8315 13.5287C20.7377 12.8134 27.6996 12.8134 34.6058 13.5287C35.7765 13.6486 36.6509 14.6411 36.6509 15.8155V17.7963M11.7864 31.6018H3.87695M11.7864 31.6018H24.2186H30.4348H36.6509M47.5292 40.9061C47.5292 41.7287 47.2017 42.5175 46.6188 43.0992C46.036 43.6808 45.2454 44.0076 44.4211 44.0076C43.5968 44.0076 42.8062 43.6808 42.2234 43.0992C41.6405 42.5175 41.313 41.7287 41.313 40.9061M47.5292 40.9061C47.5292 40.0836 47.2017 39.2947 46.6188 38.7131C46.036 38.1315 45.2454 37.8047 44.4211 37.8047C43.5968 37.8047 42.8062 38.1315 42.2234 38.7131C41.6405 39.2947 41.313 40.0836 41.313 40.9061M47.5292 40.9061H49.8602C51.147 40.9061 52.1996 39.864 52.1187 38.5821C51.7024 31.7541 49.3979 25.1747 45.4613 19.5744C45.0863 19.0498 44.5967 18.6172 44.0296 18.3091C43.4624 18.0011 42.8325 17.8257 42.1874 17.7963H36.6509M36.6509 17.7963V31.6018M28.7415 26.9491H16.3092H3.87695" stroke="#E4D23A" stroke-width="2" stroke-linecap="round" stroke-linejoin="round"/>
</svg>
